<?xml version="1.0" encoding="UTF-8"?>
<svg xmlns="http://www.w3.org/2000/svg" xmlns:xlink="http://www.w3.org/1999/xlink" viewBox="0 0 30 30" width="30px" height="30px">
<g id="surface272869298">
<path style="fill-rule:nonzero;fill:rgb(0%,0%,0%);fill-opacity:1;stroke-width:10;stroke-linecap:butt;stroke-linejoin:round;stroke:rgb(80.000001%,80.000001%,80.000001%);stroke-opacity:1;stroke-miterlimit:10;" d="M 114.648601 17.195816 C 136.782913 17.195816 154.804189 35.193318 154.804189 57.327629 L 154.804189 114.648601 C 154.804189 136.782913 136.806688 154.804189 114.672376 154.804189 L 57.351404 154.804189 C 35.217092 154.804189 17.195816 136.806688 17.195816 114.672376 L 17.195816 57.351404 C 17.195816 35.217092 35.193318 17.195816 57.327629 17.195816 Z M 120.402096 45.86819 C 120.402096 49.030234 122.969771 51.597909 126.131816 51.597909 C 129.29386 51.597909 131.861535 49.030234 131.861535 45.86819 C 131.861535 42.706145 129.29386 40.13847 126.131816 40.13847 C 122.969771 40.13847 120.402096 42.706145 120.402096 45.86819 Z M 51.597909 86.000003 C 51.597909 104.97227 67.027736 120.402096 86.000003 120.402096 C 104.97227 120.402096 120.402096 104.97227 120.402096 86.000003 C 120.402096 67.027736 104.97227 51.597909 86.000003 51.597909 C 67.027736 51.597909 51.597909 67.027736 51.597909 86.000003 Z M 108.942656 86.000003 C 108.942656 98.671955 98.671955 108.942656 86.000003 108.942656 C 73.32805 108.942656 63.057349 98.671955 63.057349 86.000003 C 63.057349 73.32805 73.32805 63.057349 86.000003 63.057349 C 98.671955 63.057349 108.942656 73.32805 108.942656 86.000003 Z M 108.942656 86.000003 " transform="matrix(0.164302,0,0,0.164302,0.87,0.87)"/>
<path style=" stroke:none;fill-rule:nonzero;fill:rgb(0%,0%,0%);fill-opacity:1;" d="M 10.289062 3.695312 C 6.652344 3.695312 3.695312 6.65625 3.695312 10.292969 L 3.695312 19.710938 C 3.695312 23.347656 6.65625 26.304688 10.292969 26.304688 L 19.710938 26.304688 C 23.347656 26.304688 26.304688 23.34375 26.304688 19.707031 L 26.304688 10.289062 C 26.304688 6.652344 23.34375 3.695312 19.707031 3.695312 Z M 21.59375 7.464844 C 22.113281 7.464844 22.535156 7.886719 22.535156 8.40625 C 22.535156 8.925781 22.113281 9.347656 21.59375 9.347656 C 21.074219 9.347656 20.652344 8.925781 20.652344 8.40625 C 20.652344 7.886719 21.074219 7.464844 21.59375 7.464844 Z M 15 9.347656 C 18.117188 9.347656 20.652344 11.882812 20.652344 15 C 20.652344 18.117188 18.117188 20.652344 15 20.652344 C 11.882812 20.652344 9.347656 18.117188 9.347656 15 C 9.347656 11.882812 11.882812 9.347656 15 9.347656 Z M 15 11.230469 C 12.917969 11.230469 11.230469 12.917969 11.230469 15 C 11.230469 17.082031 12.917969 18.769531 15 18.769531 C 17.082031 18.769531 18.769531 17.082031 18.769531 15 C 18.769531 12.917969 17.082031 11.230469 15 11.230469 Z M 15 11.230469 "/>
</g>
</svg>
